<svg width="608" height="608" xmlns="http://www.w3.org/2000/svg" xmlns:xlink="http://www.w3.org/1999/xlink" xml:space="preserve" overflow="hidden"><defs><clipPath id="clip0"><rect x="345" y="56" width="608" height="608"/></clipPath><clipPath id="clip1"><rect x="346" y="57" width="607" height="606"/></clipPath><clipPath id="clip2"><rect x="346" y="57" width="607" height="606"/></clipPath><clipPath id="clip3"><rect x="346" y="57" width="607" height="606"/></clipPath></defs><g clip-path="url(#clip0)" transform="translate(-345 -56)"><g clip-path="url(#clip1)"><g clip-path="url(#clip2)"><g clip-path="url(#clip3)"><path d="M499.95 373.7C499.95 321.938 459.55 280.275 408.419 277.75L408.419 239.875 105.419 239.875 105.419 530.25C105.419 544.137 116.781 555.5 130.669 555.5L383.169 555.5C397.056 555.5 408.419 544.137 408.419 530.25L408.419 470.281C459.55 467.756 499.95 425.463 499.95 373.7ZM409.05 432.406 409.05 315.625C439.35 318.15 462.706 343.4 462.706 373.7 462.706 404 438.719 429.881 409.05 432.406Z" fill="#ED7D31" fill-rule="nonzero" fill-opacity="1" transform="matrix(1.00165 0 0 1 346 57)"/><path d="M245.556 116.781C249.344 120.569 251.237 124.987 251.237 130.038 251.237 135.087 249.344 140.138 245.556 143.294 240.506 148.344 240.506 155.919 245.556 160.969 248.081 163.494 251.237 164.756 254.394 164.756 257.55 164.756 260.706 163.494 263.231 160.969 271.438 152.763 276.487 141.4 276.487 129.406 276.487 117.413 272.069 106.681 263.231 98.475 263.231 98.475 263.231 98.475 263.231 98.475 255.656 90.9 255.656 78.9062 263.231 71.9625 268.281 66.9125 268.281 59.3375 263.231 54.2875 258.181 49.2375 250.606 49.2375 245.556 54.2875 227.881 71.3313 227.881 99.7375 245.556 116.781 245.556 116.781 245.556 116.781 245.556 116.781Z" fill="#ED7D31" fill-rule="nonzero" fill-opacity="1" transform="matrix(1.00165 0 0 1 346 57)"/><path d="M314.362 153.394C321.938 160.969 321.938 172.962 314.362 179.906 309.312 184.956 309.312 192.531 314.362 197.581 316.888 200.106 320.044 201.369 323.2 201.369 326.356 201.369 329.513 200.106 332.037 197.581 349.081 180.538 349.081 152.131 332.037 135.087 332.037 135.087 332.037 135.087 332.037 135.087 328.25 131.3 326.356 126.881 326.356 121.831 326.356 116.781 328.25 111.731 332.037 108.575 337.088 103.525 337.088 95.95 332.037 90.9 326.987 85.85 319.412 85.85 314.362 90.9 306.156 99.1062 301.106 110.469 301.106 122.462 301.737 134.456 306.156 145.188 314.362 153.394 314.362 153.394 314.362 153.394 314.362 153.394Z" fill="#ED7D31" fill-rule="nonzero" fill-opacity="1" transform="matrix(1.00165 0 0 1 346 57)"/><path d="M182.431 153.394C186.219 157.181 188.112 161.6 188.112 166.65 188.112 171.7 186.219 176.75 182.431 179.906 177.381 184.956 177.381 192.531 182.431 197.581 184.956 200.106 188.112 201.369 191.269 201.369 194.425 201.369 197.581 200.106 200.106 197.581 208.312 189.375 213.362 178.013 213.362 166.019 213.362 154.025 208.944 143.294 200.106 134.456L200.106 134.456C192.531 126.881 192.531 114.888 200.106 107.944 205.156 102.894 205.156 95.3188 200.106 90.2688 195.056 85.2188 187.481 85.2188 182.431 90.2688 164.756 108.575 164.756 136.35 182.431 153.394 182.431 153.394 182.431 153.394 182.431 153.394Z" fill="#ED7D31" fill-rule="nonzero" fill-opacity="1" transform="matrix(1.00165 0 0 1 346 57)"/></g></g></g></g></svg>